<svg width="9742" height="5925" viewBox="0 0 9742 5925" fill="none" xmlns="http://www.w3.org/2000/svg">
<g clip-path="url(#clip0_205_51)">
<rect width="9742" height="5925" fill="#151D39"/>
<path d="M-55.5 1488.5L4679 76L-273.318 3753.42L-273.641 3756.78L8747 629.5L2498.5 5895L9459 2155L7278 6042L9922.5 4415L9323.5 6042H7278H7176.5L2498.5 5895L8747 629.5L-273.641 3756.78L-281.5 3759.5L-273.318 3753.42L-55.5 1488.5Z" fill="#4131FF"/>
<path d="M2498.5 5895L8747 629.5L-281.5 3759.5L4679 76L-55.5 1488.5L-281.5 3838.5M2498.5 5895L9459 2155L7278 6042L9922.5 4415L9323.5 6042H7176.5L2498.5 5895Z" stroke="black"/>
</g>
<defs>
<clipPath id="clip0_205_51">
<rect width="9742" height="5925" fill="white"/>
</clipPath>
</defs>
</svg>
