<svg width="6138" height="5925" viewBox="0 0 6138 5925" fill="none" xmlns="http://www.w3.org/2000/svg">
<g clip-path="url(#clip0_207_55)">
<rect width="6138" height="5925" rx="2962.5" fill="#151D39"/>
<path d="M-4487 1371.5L247.5 -41L-4704.82 3636.42L-4705.14 3639.78L4315.5 512.5L-1933 5778L5027.5 2038L2846.5 5925L5491 4298L4892 5925H2846.5H2745L-1933 5778L4315.5 512.5L-4705.14 3639.78L-4713 3642.5L-4704.82 3636.42L-4487 1371.5Z" fill="#4131FF"/>
<path d="M-1933 5778L4315.5 512.5L-4713 3642.5L247.5 -41L-4487 1371.5L-4713 3721.5M-1933 5778L5027.5 2038L2846.5 5925L5491 4298L4892 5925H2745L-1933 5778Z" stroke="black"/>
</g>
<defs>
<clipPath id="clip0_207_55">
<rect width="6138" height="5925" rx="2962.5" fill="white"/>
</clipPath>
</defs>
</svg>
